<svg xmlns="http://www.w3.org/2000/svg" width="682" height="384" viewBox="0 0 682 384">
  <defs>
    <style>
      .cls-1 {
        fill: #fff;
        stroke: #000;
        stroke-width: 1px;
        fill-rule: evenodd;
      }
    </style>
  </defs>
  <path id="Duin" class="cls-1" d="M73.892,304.075q17.972-4.29,42.282-21.652a367.413,367.413,0,0,0,43.508-38.095,584.543,584.543,0,0,0,41.057-46.265q5.516-.814,10.213-1.43,8.987-1.632,17.975-2.655t21.652-1.839a3.536,3.536,0,0,0,1.123-.612,1.262,1.262,0,0,0,.511-1.022V190.1a1.806,1.806,0,0,0-.511-1.328,2.093,2.093,0,0,0-1.532-.511q-11.44.613-19.4,1.634t-16.137,2.247q-4.7.819-10.418,1.634,2.859-3.677,5.72-6.945,5.922-7.148,11.03-14.5,17.359-26.552,25.226-45.04t7.864-29.72q0-10.006-5.208-14.707t-14.2-4.7q-15.933,0-39.832,13.481T146.2,129.431q10.417-21.242,16.75-33.7l1.429,0.2a3.172,3.172,0,0,0,1.737-.613,3.474,3.474,0,0,0,1.327-1.634l3.064-8.987a18.3,18.3,0,0,0,1.022-4.9q0-2.652-1.839-2.655a8.9,8.9,0,0,0-4.085,1.634,0.591,0.591,0,0,1-.409.2,3.2,3.2,0,0,0-.817,1.226q-6.947,10.623-26.145,50.657-3.677,7.353-7.558,15.524-31.864,36.36-48.41,85.177l-6.332,3.677q-18.384,11.643-27.984,23.49Q35.9,274.254,35.9,286.508a18.89,18.89,0,0,0,5.822,14.2q5.822,5.621,17.056,5.617a58.839,58.839,0,0,0,15.115-2.247h0ZM122.3,163.543l-29.618,62.5-5.515,2.86A240.043,240.043,0,0,1,122.3,163.543h0ZM84.718,236.26a11.759,11.759,0,0,0,.613-2.043l4.7-2.655L79.612,254.031q2.245-8.987,5.107-17.771h0ZM45.3,295.19a13.907,13.907,0,0,1-4.9-11.133q0-9.6,10.417-22.877,9.393-11.232,27.167-22.673l2.655-1.634a36.727,36.727,0,0,0-1.021,3.676,172.076,172.076,0,0,0-6.332,27.576,3.69,3.69,0,0,0,2.043,3.268l1.43,0.409a3.144,3.144,0,0,0,2.86-2.043l20.018-42.691a403.736,403.736,0,0,1,91.3-27.371q-37.585,46.165-78.641,77.211-23.084,16.545-40.035,20.631a52.269,52.269,0,0,1-12.868,1.838Q50.2,299.377,45.3,295.19ZM140.073,142.1q25.326-27.369,50.555-43.2t40.546-15.83q7.147,0,11.235,3.779t4.085,11.949q0,10.216-7.456,27.677t-24.409,43.2a198.6,198.6,0,0,1-15.116,19.61q-2.451,2.862-4.9,5.923a410.764,410.764,0,0,0-92.326,26.554q18.383-39.218,37.788-79.662h0Zm226.116,76.394a199.63,199.63,0,0,0,16.136-15.932q7.147-7.966,9.805-11.439a1.532,1.532,0,0,0,0-2.451,1.962,1.962,0,0,0-1.43-.613,1.763,1.763,0,0,0-1.225.613,247.353,247.353,0,0,1-25.942,26.758q-13.687,11.643-19,11.643-3.27,0-3.268-4.7,0-5.309,4.493-16.749,3.266-8.168,7.15-15.933t9.6-17.975a3.63,3.63,0,0,0,.408-1.634,3.7,3.7,0,0,0-1.634-3.064,3.649,3.649,0,0,0-1.634-.408,3.7,3.7,0,0,0-3.064,1.634,3.218,3.218,0,0,1-.817,1.225q-4.088,5.721-12.358,15.218T327.175,202.25q-7.967,8.072-10.826,8.069l-0.817-.409a1.662,1.662,0,0,1-.409-1.225q0-2.859,3.064-10.111t6.434-14.2q3.37-6.941,5-10.213c0.134-.271.271-0.542,0.408-0.817a3.618,3.618,0,0,0,.409-1.634,3.207,3.207,0,0,0-1.634-2.86,4.081,4.081,0,0,0-1.839-.408,3.462,3.462,0,0,0-2.859,1.838,13.754,13.754,0,0,0-1.022,2.043q-3.476,6.333-9.191,18.792t-5.72,20.018q0,4.289,3.473,5.106h0.612q4.29,0,11.439-6.025a163.611,163.611,0,0,0,13.686-12.971q6.534-6.942,9.6-10.622-3.882,7.766-7.353,16.341-4.9,12.462-4.9,19.609,0.2,9.4,7.354,9.4,7.966,0,24.1-13.481h0Zm115-65.977a3.63,3.63,0,0,0,.408-1.634,3.205,3.205,0,0,0-1.634-2.859,3.643,3.643,0,0,0-1.634-.409,3.2,3.2,0,0,0-2.86,1.634q-3.882,7.766-3.881,11.235c0,1.5.409,2.247,1.226,2.247q2.245,0,8.375-10.214h0Zm-3.779,57.6a260.886,260.886,0,0,0,23.592-19,1.769,1.769,0,0,0,.613-1.226,1.652,1.652,0,0,0-.613-1.327,1.928,1.928,0,0,0-1.226-.511,1.955,1.955,0,0,0-1.429.613q-30.233,26.148-40.036,26.145l-1.634-.408q-2.045-.815-2.043-4.29,0-8.78,15.729-36.767a3.63,3.63,0,0,0,.408-1.634,3.7,3.7,0,0,0-1.634-3.064l-1.634-.408a3.7,3.7,0,0,0-3.064,1.634l-8.579,16.545q-7.353,15.732-7.353,23.694t5.719,8.784l2.043,0.2Q464.846,219.1,477.408,210.114Zm72.817,20.631q1.839-2.652,6.537-9.4t10.621-14.4a160.53,160.53,0,0,1,11.03-12.97q3.678-3.677,5.311-3.677,1.839,0.612,1.839,4.9,0,2.044-.205,4.7-0.205,3.064-.2,6.128a29.27,29.27,0,0,0,1.021,8.068,6.785,6.785,0,0,0,4.494,4.8l2.247,0.408q7.761,0,18.69-9.192a230.379,230.379,0,0,0,19.916-18.792,2.212,2.212,0,0,0,1.021-1.634,1.759,1.759,0,0,0-1.634-1.634,3.1,3.1,0,0,0-1.839.817,221.052,221.052,0,0,1-17.464,16.341q-10.111,8.579-16.239,8.579l-1.43-.2a3.849,3.849,0,0,1-2.042-2.656,17.153,17.153,0,0,1-.613-4.9,69.948,69.948,0,0,1,.408-7.353q0.408-4.084.409-7.558a18.708,18.708,0,0,0-.817-6.026,3.068,3.068,0,0,0-3.064-2.349q-3.882,0-13.073,8.579A125.77,125.77,0,0,0,563.094,204.4l15.319-31.865,0.409-1.43a3.6,3.6,0,0,0-1.838-3.064l-1.635-.408a3.146,3.146,0,0,0-2.859,2.042l-27.984,57.807-0.409,1.43a3.6,3.6,0,0,0,1.839,3.063,5.915,5.915,0,0,0,1.43.205,3.31,3.31,0,0,0,2.859-1.43h0Z"/>
</svg>
